<svg width="1080" height="372" viewBox="0 0 1080 372" fill="none" xmlns="http://www.w3.org/2000/svg">
    <g filter="url(#filter0_d_69_1122)">
        <path
            d="M265.203 94.2567C413.303 140.859 370.497 60.3643 446.761 17.5277C492.157 -7.97064 543.375 62.8925 608.146 66.0131C676.537 69.3083 702.558 28.7842 750.834 34.4741C818.733 42.4769 794.132 127.208 892.045 145.567C989.959 163.925 955.223 221.207 961.913 290.552C967.818 351.748 1015.85 376.614 1080 342.807C1080 259.954 1080 5.99997 1080 5.99997L0 5.99997V237.359C23.6173 258.542 60.0273 280.196 106.278 208.645C152.528 137.093 180.664 67.6549 265.203 94.2567Z"
            fill="#F5EEE8" />
    </g>
    <defs>
        <filter id="filter0_d_69_1122" x="-10" y="-3.05176e-05" width="1100" height="372" filterUnits="userSpaceOnUse"
            color-interpolation-filters="sRGB">
            <feFlood flood-opacity="0" result="BackgroundImageFix" />
            <feColorMatrix in="SourceAlpha" type="matrix" values="0 0 0 0 0 0 0 0 0 0 0 0 0 0 0 0 0 0 127 0"
                result="hardAlpha" />
            <feOffset dy="4" />
            <feGaussianBlur stdDeviation="5" />
            <feComposite in2="hardAlpha" operator="out" />
            <feColorMatrix type="matrix" values="0 0 0 0 0 0 0 0 0 0 0 0 0 0 0 0 0 0 0.1 0" />
            <feBlend mode="normal" in2="BackgroundImageFix" result="effect1_dropShadow_69_1122" />
            <feBlend mode="normal" in="SourceGraphic" in2="effect1_dropShadow_69_1122" result="shape" />
        </filter>
    </defs>
</svg>