<svg width="500" height="206" viewBox="0 0 500 206" fill="none" xmlns="http://www.w3.org/2000/svg">
    <path
        d="M30.9367 67.4353C38.6705 35.9833 0 26.5 0 0H500C500 3 499.166 12.4209 491.653 20.5238C482.262 30.6524 482.538 46.9115 489.72 67.7018C496.901 88.4922 492.758 105.284 479.5 103.152C466.242 101.02 469.809 87.5 468.728 78.6301C466.518 60.5052 441.936 64.5033 436.135 96.755C430.335 129.007 459.108 187.113 444.422 200.174C430.335 212.701 413.762 203.106 413.762 189.512C413.762 175.918 425.916 161.258 425.916 143.133C425.916 131.406 409.287 116.177 398.847 137.536L398.626 137.987C391.835 151.884 386.867 162.049 377.303 161.258C369.293 160.596 370.95 135.937 371.779 128.474C373.051 117.012 359.625 99.4204 344.986 110.082C330.347 120.744 338.266 136.736 342.777 156.994C349.958 189.245 336.424 193.51 330.347 193.51C324.271 193.51 309.079 191.378 314.88 156.994C320.68 122.61 323.166 105.284 312.394 98.8873C303.776 93.7697 296.65 96.755 285.325 107.417C276.373 115.845 257.428 120.211 249.418 110.082C236.6 93.8735 233.122 67.4353 218.206 67.4353C198.596 67.4353 203.844 91.4241 180.09 91.4241C166.555 89.8249 159.374 62.0581 139.487 59.9721C126.781 58.6394 126.229 63.9702 126.229 81.2955C126.229 98.6208 109.38 95.1557 99.1603 67.4353C88.9406 39.7149 76.7874 38.3821 64.358 42.9134C51.9286 47.4446 54.9669 67.4353 58.5576 81.2955C62.1483 95.1557 73.1967 133.005 38.6706 134.071C11.0497 134.924 22.0059 90.0026 30.9367 67.4353Z"
        fill="#E1EDF3" />
</svg>