<svg width="400" height="162" viewBox="0 0 400 162" fill="none" xmlns="http://www.w3.org/2000/svg">
<path d="M371.121 47.1625C365.041 22.4284 372.726 0 400 0H57.1358H0C10.0787 0 12.9915 1.79061 18.8976 8.16279C26.2804 16.128 20.6564 36.8916 15.0108 53.2412C9.36517 69.5909 12.6223 82.7964 23.045 81.1195C33.4677 79.4427 30.6633 68.8107 31.5134 61.8353C33.2505 47.5818 52.5759 50.7259 57.1358 76.0889C61.6958 101.452 39.0763 147.147 50.6216 157.418C61.6958 167.27 74.7242 159.724 74.7242 149.034C74.7242 138.343 65.17 126.815 65.17 112.561C65.17 103.338 78.2422 91.3626 86.4497 108.159L86.6231 108.514C91.9621 119.442 95.8678 127.437 103.387 126.815C109.684 126.294 108.381 106.902 107.729 101.033C106.729 92.0193 117.284 78.185 128.792 86.5694C140.3 94.9539 134.075 107.531 130.529 123.461C124.883 148.824 135.523 152.178 140.3 152.178C145.077 152.178 157.02 150.501 152.46 123.461C147.9 96.4212 145.946 82.7964 154.414 77.7658C161.189 73.7412 166.791 76.0889 175.694 84.4733C182.732 91.1016 197.625 94.5347 203.922 86.5694C213.999 73.8229 213.515 48.9023 225.24 48.9023C240.657 48.9023 236.532 67.7673 255.206 67.7673C265.845 66.5097 275.275 37.8022 290.909 36.1618C300.897 35.1137 301.331 39.306 301.331 52.9307C301.331 66.5554 314.577 63.8305 322.611 42.0309C330.645 20.2313 335.279 17.6891 345.05 21.2525C354.822 24.8159 352.23 47.1625 349.407 58.0623C346.585 68.9621 337.899 98.7269 365.041 99.5653C386.755 100.236 378.142 64.9096 371.121 47.1625Z" fill="#E1EDF3"/>
</svg>
