<svg xmlns="http://www.w3.org/2000/svg" viewBox="0 0 999.84 999.84">
    <defs>
    </defs>
    <g id="milky-way-logo">
        <circle id="background" fill="var(--color-milk, white)" cx="500" cy="500" r="480"></circle>
        <path id="wave" fill="var(--color-dark, #232323)"
            d="M499.92,0C223.84,0,0,223.84,0,499.92S223.84,999.84,499.92,999.84,999.84,776,999.84,499.92,776,0,499.92,0ZM880.47,260.77a6.62,6.62,0,0,1,6.72,6.62,6.7,6.7,0,0,1-6.72,6.72,6.62,6.62,0,0,1-6.62-6.72A6.54,6.54,0,0,1,880.47,260.77ZM845.82,392.86c6.62,5.17,27.72,29.89,34.75,41.38s16.76,28.86,14.59,44-13.34,16.34-23.48,11.58-14.07-21.1-17.07-36.82-15.31-31.24-23.69-37.76-11.37-15.41-4.34-22.34S839.1,387.69,845.82,392.86ZM813.65,224.77a17.23,17.23,0,1,1-17.17,17.17A17.21,17.21,0,0,1,813.65,224.77Zm-18.21,207.5c7.45-8,16.55-6.72,22.24-2.48s14,8.79,15.73,21.62c1.44,10.55-2.8,17.06-14.8,17.79s-16.75-7-23.17-14S788,440.24,795.44,432.27Zm-26-142.85a9.05,9.05,0,1,1-9,9A9,9,0,0,1,769.48,289.42Zm-54.41,78.41c-14.27-12.31-29.37-21.52-62.58-32.27-24.2-7.76-17.89-36.1,12.83-28.76,31.65,7.55,62.17,24.72,80.47,42.1C767.62,369.59,744.55,393.17,715.07,367.83Zm11.38-190.74a15.52,15.52,0,1,1-15.51,15.51A15.56,15.56,0,0,1,726.45,177.09Zm-51.51,4.76a9.26,9.26,0,1,1-9.31,9.31A9.24,9.24,0,0,1,674.94,181.85Zm49.86,95c16.44,6.83,8,14.9-8.38,9.11C699.87,280,665.63,270.8,632,268.63s-45.82-2.59-71.79,2.69c-8.06,1.66-9.51-3.1-2.27-5.17,31.44-8.69,63-11.28,90.72-8.69C677.52,260.25,694.59,264.39,724.8,276.8ZM627.56,48.41a12.52,12.52,0,1,1-12.51,12.52A12.5,12.5,0,0,1,627.56,48.41ZM617,208.12c-.51,2.58-2.48,8.07-17.69,9.93-36.2,4.24-83.68,20-104.16,33.41-9.41,6.21-16.55,6.41-21.31,1.24s-.72-10.34,9.11-16.34c39-24,88.33-32.59,117.19-34.55C616.08,200.78,617.43,205.53,617,208.12ZM457.86,48.38c10.69-7.74,30.78-7.11,38.54-5.35s9.31,7,7.76,11.59-5.17,6.1-13,6.51-18.31,2-24.41,6.21-13,5.38-17.69-.93S448.19,55.37,457.86,48.38Zm-21.35,54.85c9.73-11.27,24-18.72,39.41-22.75,15.21-4,28.34-2.28,32,8.27,4,11.59-.41,21.72-12.41,29.38-8.79,5.69-15,9.2-27.93,18.2s-29.68,7.35-37.85-.93S425.13,116.37,436.51,103.23ZM432,193.74a19.6,19.6,0,1,1-19.65,19.65A19.64,19.64,0,0,1,432,193.74ZM886.16,747a2.37,2.37,0,0,1-.41.62c-81.51,126.81-223.85,210.8-385.83,210.8-253.22,0-458.54-205.32-458.54-458.54,0-213,145.33-392.14,342.17-443.55,26.07-6,37.14,15.21,17.28,57-21.21,44.48-44.69,43.44-79.13,64.34-23.59,14.38-33.21,25.65-52.14,45.72s-32,45.61-39.2,62.37S217,313.21,204.71,313.21c-14,0-10.87-5.38-25.66-5.38-10.13,0-18.93,3.73-29.79,31.76s-8.38,20.89-18.51,37S116.27,402.17,116.27,414s2.37,18,12.92,30.21,12.73,20.17,12.73,33.3c0,21.31,5,16.24,14.58,36.31,6.73,14,6.93,27.31-1.24,30.31-4.14,1.55-11.38,2.38-14.07-.1a23.8,23.8,0,0,0,13.45,17c18.93,9.1,20.59,23.89,31.24,51.3,6.72,17.49,7,17.28-8.9,29.07s-15.82,24.93-2.06,45.41,71.89,64.86,71.89,64.86c48.51,36.51,90.5,49.75,146,47.16S474.37,782.1,495.89,764c-34.76,14.89-52,22.65-52.24,11.38s15.72-5.69,43-16.24,44.58-21.93,59.17-35.69,20.48-22.44,16.44-27.82-6.41,2-18.93,10.86c-21.72,15.31-32.58,26.89-93.19,27.93,40.65-3.62,57.4-8.49,78.71-23.28,24.83-17.27,41.79-37.24,47.38-54.3,1.86-5.59,6.41-17.38-2.9-23.79-11.38-7.87-18.93,2-28.13,17.48-11.49,19.44-36,36-75.2,33.3a90.81,90.81,0,0,0,19.24,1.45c16.75-.62,27.1-4,36.2-9.72s13.65-9.93,21-19.24,9.51-13,14.38-9.41c3.51,2.58,7.24,4.86-.42,14.68-18.51,23.69-35.06,31.14-60.51,34.24s-50.16-3.73-63.62-10c-10.61-5-10.15-8.24-7.21-11.34s4.55-3.15,13.32,1.1,29.68,6.62,42.3.93c17.59-7.86,18.11-16.34,12.83-20.79-5.79-4.86-10.24,6.31-20.48,9.1s-31.13,3.21-52.24-9.72-51.2-36.62-68.37-79.75-21.62-101.68,9.41-155.58S441.58,328,496.71,312s111-12,111.61,5.48c.52,16.66-24.61,6.52-24.51,18.93s10.24,11,24.82,13.24C623.94,352,667.8,368,691.9,382.93s41.79,36,54.1,53.58,26.17,33.41,49.65,42.21c36.41,13.55,52.24,47.47,53.79,82.54,1.24,26.07,6.72,47.48,23,63.2,8,7.66,22.24,24.52,21,42.82-1.14,17.69,5.79,18.21,5.79,38.48C899.19,720,893.09,734.93,886.16,747Zm-544-134.79a7,7,0,1,1,0-14.06,7,7,0,1,1,0,14.06Zm38.58,152.58c10.76,2.07,15.41,1.44,16.65,4.24,1.55,3.2-6.62,4-16.34,4.24-17.28.31-30.1-2.79-42.51-9-11.59-5.69-1.87-16.65,5.89-12.93C350.86,754.59,356.35,760.17,380.76,764.83ZM394.21,348c-10.35,11.07-20.69,26.38-26.07,34.75s-12.31,13-22.24,9.42c-7.45-2.69-2.07-16.45,3.41-26.17s21.21-26.79,28.45-35.48,18.72-15,25.34-6.83S404.55,336.9,394.21,348ZM189.6,564.88c-4.55-12.72-5.58-26.89,3.73-30s15.93,3.93,20.48,17.07c12.31,35.69,18.72,52.55,46,79.75,6.83,6.72,9.1,17.48,1.34,22.55-9.51,6.1-20.17-1.65-29.17-11.38C211.53,621.05,202.33,600.15,189.6,564.88Zm20.59,113.58c-5.9,7-16.45,7.75-23.9-1.66s-5.89-16.86,1-23.48,16.24-4.55,23.37,3.52S216.08,671.42,210.19,678.46ZM157.12,410.55c-10.13-4-9.51-21.21-4.34-41.69s17-36.72,34.55-30S200.67,364,191.47,388,167.36,414.58,157.12,410.55Zm24.11,75.82a10.61,10.61,0,1,1-10.56-10.55A10.61,10.61,0,0,1,181.23,486.37Zm47-131.47c1.13-15.31,5.58-27.52,17.48-45.31,13.44-20.06,22.13-22.65,29.27-17.27,8.69,6.62,4.34,18.51-.72,26.89-6.42,10.76-17.17,24.52-21.42,37.45-4.75,14.17-11.06,18.93-15.92,18.93S227.05,369.38,228.19,354.9ZM247,703.9c8.9,7.55,24.93,22.65,49,32.79,17.59,7.24,10.66,29.07-10.55,22.45-20.17-6.21-47.68-25.76-60.82-39.31C213.08,707.94,236.36,694.8,247,703.9Zm43.86-189.19c-4.86-34.75,18.72-28.34,20-2.69.93,17.48,3.73,30.72,10.55,47.38,9.21,22.75-2.79,23.58-12.41,6C298.94,547.09,293.77,535.5,290.87,514.71Zm26.27-149.57a8.59,8.59,0,1,1,8.69-8.59A8.66,8.66,0,0,1,317.14,365.14ZM912.85,613.7c-3.93-5.89-8.59-9.31-17.38-17.06s-15.21-16.35-15.21-29.07c0-10.35,2.18-17.69,7.35-21.52s14.89-5.69,28.24,6.62,18.1,32.38,20.27,44.38,1,20.07-5.38,24.41S916.67,619.5,912.85,613.7Z" />
        <g id="drops" fill="var(--color-dark, #232323)">
            <path class="star" d="M605.8,741.58a8.85,8.85,0,1,1-8.79-8.8A8.87,8.87,0,0,1,605.8,741.58Z" />
            <path class="star" d="M532.77,805a8.85,8.85,0,1,1-8.9-8.89A8.81,8.81,0,0,1,532.77,805Z" />
            <path class="star" d="M663.62,886.18a6.93,6.93,0,1,1-6.93-6.93A6.93,6.93,0,0,1,663.62,886.18Z" />
            <path class="star" d="M787,768.06a9.88,9.88,0,1,1-19.75,0,9.88,9.88,0,0,1,19.75,0Z" />
            <path class="star" d="M881.26,678.89a10.81,10.81,0,1,1-10.87-10.75A10.84,10.84,0,0,1,881.26,678.89Z" />
            <path class="star" d="M356.3,853.6a9.52,9.52,0,1,1-9.51-9.41A9.49,9.49,0,0,1,356.3,853.6Z" />
            <path class="star" d="M230.11,795a7.66,7.66,0,1,1-7.66-7.65A7.65,7.65,0,0,1,230.11,795Z" />
            <path class="star" d="M203,751.92a12.16,12.16,0,1,1-12.11-12.21A12.15,12.15,0,0,1,203,751.92Z" />
            <path class="star" d="M148,692.86a12.36,12.36,0,1,1-24.72,0,12.36,12.36,0,0,1,24.72,0Z" />
            <path class="star" d="M93.26,598.11a7.14,7.14,0,0,1-14.28,0,7.14,7.14,0,0,1,14.28,0Z" />
            <path class="star"
                d="M166.18,591.07a4.5,4.5,0,0,1-4.55,4.45,4.42,4.42,0,0,1-4.45-4.45,4.51,4.51,0,0,1,4.45-4.55A4.59,4.59,0,0,1,166.18,591.07Z" />
            <path class="star" d="M105.26,406.12a14.33,14.33,0,1,1-14.38-14.37A14.41,14.41,0,0,1,105.26,406.12Z" />
            <path class="star" d="M300.55,136.15a14.79,14.79,0,1,1-14.79-14.79A14.79,14.79,0,0,1,300.55,136.15Z" />
            <path class="star" d="M356.61,122a19.29,19.29,0,1,1-19.34-19.35A19.31,19.31,0,0,1,356.61,122Z" />
            <path class="star" d="M193.18,290.89a7.86,7.86,0,1,1-15.72,0,7.86,7.86,0,0,1,15.72,0Z" />
            <path class="star" d="M178.7,274.14a3.16,3.16,0,0,1-6.31,0,3.16,3.16,0,1,1,6.31,0Z" />
            <path class="star" d="M127.19,546.39a3.68,3.68,0,0,1-7.35,0,3.68,3.68,0,1,1,7.35,0Z" />
            <path class="star"
                d="M578.7,558.7a5.79,5.79,0,0,1-5.8,5.79,5.69,5.69,0,0,1-5.68-5.79A5.6,5.6,0,0,1,572.9,553,5.7,5.7,0,0,1,578.7,558.7Z" />
            <circle class="star" cx="499.36" cy="500.67" r="5.82" />
            <circle class="star" cx="773.47" cy="545.49" r="5.17" />
            <circle class="star" cx="722.61" cy="459.58" r="4.17" />
        </g>
    </g>
</svg>