<svg width="150" height="150" viewBox="0 0 150 150" fill="none" xmlns="http://www.w3.org/2000/svg">
<g clip-path="url(#clip0_12_34)">
<rect x="26" y="25" width="100" height="100" fill="#FFF1F1"/>
<path d="M115.594 114.619H98.9375V88.5125C98.9375 82.2875 98.8125 74.275 90.25 74.275C81.5687 74.275 80.2437 81.05 80.2437 88.0562V114.619H63.5812V60.9375H79.5812V68.25H79.8C82.0375 64.0375 87.475 59.5812 95.6 59.5812C112.475 59.5812 115.6 70.6937 115.6 85.15V114.619H115.594ZM44.7687 53.5937C43.4972 53.5954 42.2379 53.3461 41.0629 52.86C39.8879 52.374 38.8204 51.6609 37.9216 50.7615C37.0228 49.8621 36.3103 48.7941 35.8251 47.6188C35.3398 46.4435 35.0913 45.184 35.0937 43.9125C35.095 41.999 35.6636 40.1288 36.7278 38.5384C37.7919 36.9481 39.3037 35.709 41.0721 34.9778C42.8404 34.2467 44.7859 34.0564 46.6624 34.4309C48.5389 34.8054 50.2622 35.728 51.6144 37.0819C52.9666 38.4359 53.887 40.1604 54.2591 42.0374C54.6312 43.9144 54.4383 45.8596 53.7049 47.627C52.9715 49.3944 51.7304 50.9046 50.1387 51.9667C48.547 53.0288 46.676 53.595 44.7625 53.5937H44.7687ZM53.1187 114.619H36.4125V60.9375H53.125V114.619H53.1187ZM123.938 18.75H28.0562C23.4562 18.75 19.75 22.375 19.75 26.8562V123.144C19.75 127.625 23.4625 131.25 28.05 131.25H123.913C128.5 131.25 132.25 127.625 132.25 123.144V26.8562C132.25 22.375 128.5 18.75 123.913 18.75H123.931H123.938Z" fill="url(#paint0_linear_12_34)"/>
</g>
<defs>
<linearGradient id="paint0_linear_12_34" x1="76" y1="18.75" x2="76" y2="131.25" gradientUnits="userSpaceOnUse">
<stop stop-color="#D5E3EB"/>
<stop offset="0.0572917" stop-color="#0072B1" stop-opacity="0.8"/>
</linearGradient>
<clipPath id="clip0_12_34">
<rect width="150" height="150" fill="white"/>
</clipPath>
</defs>
</svg>
